<svg width="105" height="105" viewBox="0 0 105 105" fill="none" xmlns="http://www.w3.org/2000/svg">
<circle cx="52.5" cy="52.5" r="51.3" fill="white" stroke="url(#paint0_linear_1_5)" stroke-width="2.4"/>
<path d="M16.6 66C16.3867 66 16.2 65.92 16.04 65.76C15.88 65.6 15.8 65.4133 15.8 65.2C15.8 65.0667 15.8133 64.92 15.84 64.76L25.76 38.88C25.8667 38.6133 26.0133 38.4 26.2 38.24C26.3867 38.08 26.6667 38 27.04 38H29.76C30.1067 38 30.3733 38.08 30.56 38.24C30.7733 38.4 30.9333 38.6133 31.04 38.88L40.92 64.76C40.9733 64.92 41 65.0667 41 65.2C41 65.4133 40.92 65.6 40.76 65.76C40.6 65.92 40.4133 66 40.2 66H38.16C37.84 66 37.6 65.92 37.44 65.76C37.3067 65.6 37.2133 65.4533 37.16 65.32L34.96 59.64H21.84L19.64 65.32C19.6133 65.4533 19.52 65.6 19.36 65.76C19.2 65.92 18.96 66 18.64 66H16.6ZM23 56.2H33.8L28.4 42L23 56.2ZM45.6769 66C45.4102 66 45.1835 65.92 44.9969 65.76C44.8369 65.5733 44.7569 65.3467 44.7569 65.08V46.12C44.7569 45.8533 44.8369 45.64 44.9969 45.48C45.1835 45.2933 45.4102 45.2 45.6769 45.2H47.5569C47.8235 45.2 48.0369 45.2933 48.1969 45.48C48.3835 45.64 48.4769 45.8533 48.4769 46.12V47.88C49.1702 46.9733 50.0369 46.24 51.0769 45.68C52.1435 45.0933 53.5035 44.8 55.1569 44.8C56.8902 44.8 58.3569 45.1867 59.5569 45.96C60.7835 46.7067 61.7035 47.76 62.3169 49.12C62.9302 50.4533 63.2369 52.0133 63.2369 53.8V65.08C63.2369 65.3467 63.1569 65.5733 62.9969 65.76C62.8369 65.92 62.6235 66 62.3569 66H60.3569C60.0902 66 59.8635 65.92 59.6769 65.76C59.5169 65.5733 59.4369 65.3467 59.4369 65.08V54C59.4369 52.1333 58.9835 50.68 58.0769 49.64C57.1702 48.5733 55.8369 48.04 54.0769 48.04C52.4235 48.04 51.0902 48.5733 50.0769 49.64C49.0902 50.68 48.5969 52.1333 48.5969 54V65.08C48.5969 65.3467 48.5035 65.5733 48.3169 65.76C48.1569 65.92 47.9435 66 47.6769 66H45.6769ZM76.6147 66.4C75.148 66.4 73.8814 66.1467 72.8147 65.64C71.748 65.1067 70.868 64.4 70.1747 63.52C69.508 62.6133 69.0014 61.5867 68.6547 60.44C68.3347 59.2933 68.148 58.08 68.0947 56.8C68.068 56.3733 68.0547 55.9733 68.0547 55.6C68.0547 55.2267 68.068 54.8267 68.0947 54.4C68.148 53.1467 68.3347 51.9467 68.6547 50.8C69.0014 49.6533 69.508 48.6267 70.1747 47.72C70.868 46.8133 71.748 46.1067 72.8147 45.6C73.8814 45.0667 75.148 44.8 76.6147 44.8C78.188 44.8 79.4947 45.08 80.5347 45.64C81.5747 46.2 82.428 46.8933 83.0947 47.72V38.52C83.0947 38.2533 83.1747 38.04 83.3347 37.88C83.5214 37.6933 83.748 37.6 84.0147 37.6H85.9347C86.2014 37.6 86.4147 37.6933 86.5747 37.88C86.7614 38.04 86.8547 38.2533 86.8547 38.52V65.08C86.8547 65.3467 86.7614 65.5733 86.5747 65.76C86.4147 65.92 86.2014 66 85.9347 66H84.1347C83.8414 66 83.6147 65.92 83.4547 65.76C83.2947 65.5733 83.2147 65.3467 83.2147 65.08V63.4C82.548 64.2533 81.6814 64.9733 80.6147 65.56C79.548 66.12 78.2147 66.4 76.6147 66.4ZM77.4547 63.16C78.788 63.16 79.8547 62.8533 80.6547 62.24C81.4547 61.6267 82.0547 60.8533 82.4547 59.92C82.8547 58.96 83.068 57.9867 83.0947 57C83.1214 56.5733 83.1347 56.0667 83.1347 55.48C83.1347 54.8667 83.1214 54.3467 83.0947 53.92C83.068 52.9867 82.8414 52.0667 82.4147 51.16C82.0147 50.2533 81.4014 49.5067 80.5747 48.92C79.7747 48.3333 78.7347 48.04 77.4547 48.04C76.0947 48.04 75.0147 48.3467 74.2147 48.96C73.4147 49.5467 72.8414 50.3333 72.4947 51.32C72.148 52.28 71.948 53.32 71.8947 54.44C71.868 55.2133 71.868 55.9867 71.8947 56.76C71.948 57.88 72.148 58.9333 72.4947 59.92C72.8414 60.88 73.4147 61.6667 74.2147 62.28C75.0147 62.8667 76.0947 63.16 77.4547 63.16Z" fill="#243653"/>
<defs>
<linearGradient id="paint0_linear_1_5" x1="3" y1="8.65385" x2="97.5258" y2="96.071" gradientUnits="userSpaceOnUse">
<stop stop-color="#48D0F8"/>
<stop offset="1" stop-color="#73A6F1"/>
</linearGradient>
</defs>
</svg>
