<svg width="105" height="105" viewBox="0 0 105 105" fill="none" xmlns="http://www.w3.org/2000/svg">
<circle cx="52.5" cy="52.5" r="51.3" fill="white" stroke="url(#paint0_linear_1_5)" stroke-width="2.4"/>
<path d="M24.24 63C24.0747 63 23.93 62.938 23.806 62.814C23.682 62.69 23.62 62.5453 23.62 62.38C23.62 62.2767 23.6303 62.163 23.651 62.039L31.339 41.982C31.4217 41.7753 31.5353 41.61 31.68 41.486C31.8247 41.362 32.0417 41.3 32.331 41.3H34.439C34.7077 41.3 34.9143 41.362 35.059 41.486C35.2243 41.61 35.3483 41.7753 35.431 41.982L43.088 62.039C43.1293 62.163 43.15 62.2767 43.15 62.38C43.15 62.5453 43.088 62.69 42.964 62.814C42.84 62.938 42.6953 63 42.53 63H40.949C40.701 63 40.515 62.938 40.391 62.814C40.2877 62.69 40.2153 62.5763 40.174 62.473L38.469 58.071H28.301L26.596 62.473C26.5753 62.5763 26.503 62.69 26.379 62.814C26.255 62.938 26.069 63 25.821 63H24.24ZM29.2 55.405H37.57L33.385 44.4L29.2 55.405ZM46.7746 63C46.5679 63 46.3922 62.938 46.2476 62.814C46.1236 62.6693 46.0616 62.4937 46.0616 62.287V47.593C46.0616 47.3863 46.1236 47.221 46.2476 47.097C46.3922 46.9523 46.5679 46.88 46.7746 46.88H48.2316C48.4382 46.88 48.6036 46.9523 48.7276 47.097C48.8722 47.221 48.9446 47.3863 48.9446 47.593V48.957C49.4819 48.2543 50.1536 47.686 50.9596 47.252C51.7862 46.7973 52.8402 46.57 54.1216 46.57C55.4649 46.57 56.6016 46.8697 57.5316 47.469C58.4822 48.0477 59.1952 48.864 59.6706 49.918C60.1459 50.9513 60.3836 52.1603 60.3836 53.545V62.287C60.3836 62.4937 60.3216 62.6693 60.1976 62.814C60.0736 62.938 59.9082 63 59.7016 63H58.1516C57.9449 63 57.7692 62.938 57.6246 62.814C57.5006 62.6693 57.4386 62.4937 57.4386 62.287V53.7C57.4386 52.2533 57.0872 51.127 56.3846 50.321C55.6819 49.4943 54.6486 49.081 53.2846 49.081C52.0032 49.081 50.9699 49.4943 50.1846 50.321C49.4199 51.127 49.0376 52.2533 49.0376 53.7V62.287C49.0376 62.4937 48.9652 62.6693 48.8206 62.814C48.6966 62.938 48.5312 63 48.3246 63H46.7746ZM70.7514 63.31C69.6147 63.31 68.633 63.1137 67.8064 62.721C66.9797 62.3077 66.2977 61.76 65.7604 61.078C65.2437 60.3753 64.851 59.5797 64.5824 58.691C64.3344 57.8023 64.1897 56.862 64.1484 55.87C64.1277 55.5393 64.1174 55.2293 64.1174 54.94C64.1174 54.6507 64.1277 54.3407 64.1484 54.01C64.1897 53.0387 64.3344 52.1087 64.5824 51.22C64.851 50.3313 65.2437 49.5357 65.7604 48.833C66.2977 48.1303 66.9797 47.5827 67.8064 47.19C68.633 46.7767 69.6147 46.57 70.7514 46.57C71.9707 46.57 72.9834 46.787 73.7894 47.221C74.5954 47.655 75.2567 48.1923 75.7734 48.833V41.703C75.7734 41.4963 75.8354 41.331 75.9594 41.207C76.104 41.0623 76.2797 40.99 76.4864 40.99H77.9744C78.1811 40.99 78.3464 41.0623 78.4704 41.207C78.6151 41.331 78.6874 41.4963 78.6874 41.703V62.287C78.6874 62.4937 78.6151 62.6693 78.4704 62.814C78.3464 62.938 78.1811 63 77.9744 63H76.5794C76.3521 63 76.1764 62.938 76.0524 62.814C75.9284 62.6693 75.8664 62.4937 75.8664 62.287V60.985C75.3497 61.6463 74.6781 62.2043 73.8514 62.659C73.0247 63.093 71.9914 63.31 70.7514 63.31ZM71.4024 60.799C72.4357 60.799 73.2624 60.5613 73.8824 60.086C74.5024 59.6107 74.9674 59.0113 75.2774 58.288C75.5874 57.544 75.7527 56.7897 75.7734 56.025C75.7941 55.6943 75.8044 55.3017 75.8044 54.847C75.8044 54.3717 75.7941 53.9687 75.7734 53.638C75.7527 52.9147 75.577 52.2017 75.2464 51.499C74.9364 50.7963 74.4611 50.2177 73.8204 49.763C73.2004 49.3083 72.3944 49.081 71.4024 49.081C70.3484 49.081 69.5114 49.3187 68.8914 49.794C68.2714 50.2487 67.827 50.8583 67.5584 51.623C67.2897 52.367 67.1347 53.173 67.0934 54.041C67.0727 54.6403 67.0727 55.2397 67.0934 55.839C67.1347 56.707 67.2897 57.5233 67.5584 58.288C67.827 59.032 68.2714 59.6417 68.8914 60.117C69.5114 60.5717 70.3484 60.799 71.4024 60.799Z" fill="#243653"/>
<defs>
<linearGradient id="paint0_linear_1_5" x1="3" y1="8.65385" x2="97.5258" y2="96.071" gradientUnits="userSpaceOnUse">
<stop stop-color="#48D0F8"/>
<stop offset="1" stop-color="#73A6F1"/>
</linearGradient>
</defs>
</svg>
