<svg width="105" height="105" viewBox="0 0 105 105" fill="none" xmlns="http://www.w3.org/2000/svg">
<circle cx="52.5" cy="52.5" r="52" fill="white" stroke="url(#paint0_linear_1_5)"/>
<path d="M29.144 61C29.0053 61 28.884 60.948 28.78 60.844C28.676 60.74 28.624 60.6187 28.624 60.48C28.624 60.3933 28.6413 60.298 28.676 60.194L35.254 43.32C35.3233 43.1467 35.41 43.0167 35.514 42.93C35.6353 42.8433 35.8 42.8 36.008 42.8H36.892C37.1 42.8 37.256 42.8433 37.36 42.93C37.4813 43.0167 37.5767 43.1467 37.646 43.32L44.224 60.194C44.2587 60.298 44.276 60.3933 44.276 60.48C44.276 60.6187 44.224 60.74 44.12 60.844C44.016 60.948 43.8947 61 43.756 61H43.236C43.0627 61 42.9327 60.9567 42.846 60.87C42.7593 60.766 42.6987 60.6793 42.664 60.61L41.052 56.45H31.848L30.236 60.61C30.2187 60.6793 30.158 60.766 30.054 60.87C29.9673 60.9567 29.8373 61 29.664 61H29.144ZM32.472 54.89H40.428L36.45 44.646L32.472 54.89ZM47.5882 61C47.4148 61 47.2762 60.948 47.1722 60.844C47.0682 60.74 47.0162 60.6013 47.0162 60.428V48.052C47.0162 47.8787 47.0682 47.74 47.1722 47.636C47.2762 47.532 47.4148 47.48 47.5882 47.48H48.0302C48.2035 47.48 48.3422 47.532 48.4462 47.636C48.5502 47.74 48.6022 47.8787 48.6022 48.052V49.274C49.0702 48.6673 49.6335 48.1733 50.2922 47.792C50.9682 47.4107 51.8608 47.22 52.9702 47.22C54.1488 47.22 55.1282 47.48 55.9082 48C56.7055 48.5027 57.2948 49.196 57.6762 50.08C58.0748 50.9467 58.2742 51.9347 58.2742 53.044V60.428C58.2742 60.6013 58.2222 60.74 58.1182 60.844C58.0142 60.948 57.8755 61 57.7022 61H57.2602C57.0868 61 56.9482 60.948 56.8442 60.844C56.7402 60.74 56.6882 60.6013 56.6882 60.428V53.174C56.6882 51.7873 56.3502 50.704 55.6742 49.924C54.9982 49.1267 54.0102 48.728 52.7102 48.728C51.4795 48.728 50.4828 49.1267 49.7202 49.924C48.9748 50.704 48.6022 51.7873 48.6022 53.174V60.428C48.6022 60.6013 48.5502 60.74 48.4462 60.844C48.3422 60.948 48.2035 61 48.0302 61H47.5882ZM67.2401 61.26C66.2348 61.26 65.3768 61.078 64.6661 60.714C63.9728 60.35 63.4094 59.8647 62.9761 59.258C62.5428 58.6513 62.2221 57.9753 62.0141 57.23C61.8234 56.4847 61.7108 55.7307 61.6761 54.968C61.6588 54.708 61.6501 54.4653 61.6501 54.24C61.6501 54.0147 61.6588 53.772 61.6761 53.512C61.7108 52.7493 61.8234 51.9953 62.0141 51.25C62.2221 50.5047 62.5428 49.8287 62.9761 49.222C63.4094 48.6153 63.9728 48.13 64.6661 47.766C65.3768 47.402 66.2348 47.22 67.2401 47.22C68.3148 47.22 69.1988 47.4193 69.8921 47.818C70.6028 48.2167 71.1748 48.702 71.6081 49.274V43.112C71.6081 42.9387 71.6601 42.8 71.7641 42.696C71.8681 42.592 72.0068 42.54 72.1801 42.54H72.6221C72.7954 42.54 72.9341 42.592 73.0381 42.696C73.1421 42.8 73.1941 42.9387 73.1941 43.112V60.428C73.1941 60.6013 73.1421 60.74 73.0381 60.844C72.9341 60.948 72.7954 61 72.6221 61H72.1801C72.0068 61 71.8681 60.948 71.7641 60.844C71.6601 60.74 71.6081 60.6013 71.6081 60.428V59.206C71.1748 59.7953 70.6028 60.2893 69.8921 60.688C69.1988 61.0693 68.3148 61.26 67.2401 61.26ZM67.3961 59.752C68.3841 59.752 69.1814 59.518 69.7881 59.05C70.3948 58.582 70.8454 58.0013 71.1401 57.308C71.4348 56.5973 71.5908 55.8867 71.6081 55.176C71.6254 54.916 71.6341 54.578 71.6341 54.162C71.6341 53.746 71.6254 53.408 71.6081 53.148C71.5908 52.4547 71.4261 51.77 71.1141 51.094C70.8194 50.418 70.3688 49.8547 69.7621 49.404C69.1554 48.9533 68.3668 48.728 67.3961 48.728C66.3908 48.728 65.5848 48.9533 64.9781 49.404C64.3888 49.8547 63.9641 50.444 63.7041 51.172C63.4441 51.9 63.2968 52.68 63.2621 53.512C63.2448 53.9973 63.2448 54.4827 63.2621 54.968C63.2968 55.8 63.4441 56.58 63.7041 57.308C63.9641 58.036 64.3888 58.6253 64.9781 59.076C65.5848 59.5267 66.3908 59.752 67.3961 59.752Z" fill="#243653"/>
<defs>
<linearGradient id="paint0_linear_1_5" x1="3" y1="8.65385" x2="97.5258" y2="96.071" gradientUnits="userSpaceOnUse">
<stop stop-color="#48D0F8"/>
<stop offset="1" stop-color="#73A6F1"/>
</linearGradient>
</defs>
</svg>
