<svg width="105" height="105" viewBox="0 0 105 105" fill="none" xmlns="http://www.w3.org/2000/svg">
<circle cx="52.5" cy="52.5" r="51.75" fill="white" stroke="url(#paint0_linear_1_5)" stroke-width="1.5"/>
<path d="M29.04 62C28.9013 62 28.78 61.948 28.676 61.844C28.572 61.74 28.52 61.6187 28.52 61.48C28.52 61.3933 28.5287 61.298 28.546 61.194L34.994 44.372C35.0633 44.1987 35.1587 44.06 35.28 43.956C35.4013 43.852 35.5833 43.8 35.826 43.8H37.594C37.8193 43.8 37.9927 43.852 38.114 43.956C38.2527 44.06 38.3567 44.1987 38.426 44.372L44.848 61.194C44.8827 61.298 44.9 61.3933 44.9 61.48C44.9 61.6187 44.848 61.74 44.744 61.844C44.64 61.948 44.5187 62 44.38 62H43.054C42.846 62 42.69 61.948 42.586 61.844C42.4993 61.74 42.4387 61.6447 42.404 61.558L40.974 57.866H32.446L31.016 61.558C30.9987 61.6447 30.938 61.74 30.834 61.844C30.73 61.948 30.574 62 30.366 62H29.04ZM33.2 55.63H40.22L36.71 46.4L33.2 55.63ZM47.94 62C47.7666 62 47.6193 61.948 47.498 61.844C47.394 61.7227 47.342 61.5753 47.342 61.402V49.078C47.342 48.9047 47.394 48.766 47.498 48.662C47.6193 48.5407 47.7666 48.48 47.94 48.48H49.162C49.3353 48.48 49.474 48.5407 49.578 48.662C49.6993 48.766 49.76 48.9047 49.76 49.078V50.222C50.2106 49.6327 50.774 49.156 51.45 48.792C52.1433 48.4107 53.0273 48.22 54.102 48.22C55.2286 48.22 56.182 48.4713 56.962 48.974C57.7593 49.4593 58.3573 50.144 58.756 51.028C59.1546 51.8947 59.354 52.9087 59.354 54.07V61.402C59.354 61.5753 59.302 61.7227 59.198 61.844C59.094 61.948 58.9553 62 58.782 62H57.482C57.3086 62 57.1613 61.948 57.04 61.844C56.936 61.7227 56.884 61.5753 56.884 61.402V54.2C56.884 52.9867 56.5893 52.042 56 51.366C55.4106 50.6727 54.544 50.326 53.4 50.326C52.3253 50.326 51.4586 50.6727 50.8 51.366C50.1586 52.042 49.838 52.9867 49.838 54.2V61.402C49.838 61.5753 49.7773 61.7227 49.656 61.844C49.552 61.948 49.4133 62 49.24 62H47.94ZM68.0495 62.26C67.0962 62.26 66.2729 62.0953 65.5795 61.766C64.8862 61.4193 64.3142 60.96 63.8635 60.388C63.4302 59.7987 63.1009 59.1313 62.8755 58.386C62.6675 57.6407 62.5462 56.852 62.5115 56.02C62.4942 55.7427 62.4855 55.4827 62.4855 55.24C62.4855 54.9973 62.4942 54.7373 62.5115 54.46C62.5462 53.6453 62.6675 52.8653 62.8755 52.12C63.1009 51.3747 63.4302 50.7073 63.8635 50.118C64.3142 49.5287 64.8862 49.0693 65.5795 48.74C66.2729 48.3933 67.0962 48.22 68.0495 48.22C69.0722 48.22 69.9215 48.402 70.5975 48.766C71.2735 49.13 71.8282 49.5807 72.2615 50.118V44.138C72.2615 43.9647 72.3135 43.826 72.4175 43.722C72.5389 43.6007 72.6862 43.54 72.8595 43.54H74.1075C74.2809 43.54 74.4195 43.6007 74.5235 43.722C74.6449 43.826 74.7055 43.9647 74.7055 44.138V61.402C74.7055 61.5753 74.6449 61.7227 74.5235 61.844C74.4195 61.948 74.2809 62 74.1075 62H72.9375C72.7469 62 72.5995 61.948 72.4955 61.844C72.3915 61.7227 72.3395 61.5753 72.3395 61.402V60.31C71.9062 60.8647 71.3429 61.3327 70.6495 61.714C69.9562 62.078 69.0895 62.26 68.0495 62.26ZM68.5955 60.154C69.4622 60.154 70.1555 59.9547 70.6755 59.556C71.1955 59.1573 71.5855 58.6547 71.8455 58.048C72.1055 57.424 72.2442 56.7913 72.2615 56.15C72.2789 55.8727 72.2875 55.5433 72.2875 55.162C72.2875 54.7633 72.2789 54.4253 72.2615 54.148C72.2442 53.5413 72.0969 52.9433 71.8195 52.354C71.5595 51.7647 71.1609 51.2793 70.6235 50.898C70.1035 50.5167 69.4275 50.326 68.5955 50.326C67.7115 50.326 67.0095 50.5253 66.4895 50.924C65.9695 51.3053 65.5969 51.8167 65.3715 52.458C65.1462 53.082 65.0162 53.758 64.9815 54.486C64.9642 54.9887 64.9642 55.4913 64.9815 55.994C65.0162 56.722 65.1462 57.4067 65.3715 58.048C65.5969 58.672 65.9695 59.1833 66.4895 59.582C67.0095 59.9633 67.7115 60.154 68.5955 60.154Z" fill="#243653"/>
<defs>
<linearGradient id="paint0_linear_1_5" x1="3" y1="8.65385" x2="97.5258" y2="96.071" gradientUnits="userSpaceOnUse">
<stop stop-color="#48D0F8"/>
<stop offset="1" stop-color="#73A6F1"/>
</linearGradient>
</defs>
</svg>
